<svg xmlns="http://www.w3.org/2000/svg" xmlns:xlink="http://www.w3.org/1999/xlink" width="1080" zoomAndPan="magnify" viewBox="0 0 810 809.999993" height="1080" preserveAspectRatio="xMidYMid meet" version="1.0"><path fill="#ffffff" d="M 555.574219 394.917969 L 427.855469 394.917969 C 422.289062 394.917969 417.773438 390.398438 417.773438 384.835938 C 417.773438 379.269531 422.289062 374.75 427.855469 374.75 L 555.574219 374.75 C 561.136719 374.75 565.65625 379.269531 565.65625 384.835938 C 565.65625 390.398438 561.136719 394.917969 555.574219 394.917969 Z M 555.574219 394.917969 " fill-opacity="1" fill-rule="nonzero"/><path fill="#ffffff" d="M 505.15625 445.332031 C 502.578125 445.332031 499.996094 444.351562 498.03125 442.375 C 494.09375 438.433594 494.09375 432.050781 498.03125 428.109375 L 541.320312 384.820312 L 498.03125 341.53125 C 494.09375 337.59375 494.09375 331.207031 498.03125 327.265625 C 501.972656 323.328125 508.355469 323.328125 512.296875 327.265625 L 562.710938 377.683594 C 566.652344 381.621094 566.652344 388.007812 562.710938 391.945312 L 512.296875 442.359375 C 510.320312 444.351562 507.738281 445.332031 505.15625 445.332031 Z M 505.15625 445.332031 " fill-opacity="1" fill-rule="nonzero"/><path fill="#ffffff" d="M 350.550781 566.328125 C 347.675781 566.328125 344.945312 565.925781 342.214844 565.078125 L 261.3125 538.121094 C 250.300781 534.277344 243 524.019531 243 512.550781 L 243 270.558594 C 243 255.730469 255.058594 243.671875 269.886719 243.671875 C 272.765625 243.671875 275.492188 244.074219 278.222656 244.921875 L 359.128906 271.878906 C 370.140625 275.722656 377.441406 285.980469 377.441406 297.449219 L 377.441406 539.441406 C 377.441406 554.269531 365.378906 566.328125 350.550781 566.328125 Z M 269.886719 263.839844 C 266.191406 263.839844 263.164062 266.863281 263.164062 270.558594 L 263.164062 512.550781 C 263.164062 515.414062 265.089844 518.078125 267.832031 519.03125 L 348.359375 545.867188 C 348.9375 546.054688 349.691406 546.160156 350.550781 546.160156 C 354.25 546.160156 357.273438 543.136719 357.273438 539.441406 L 357.273438 297.449219 C 357.273438 294.585938 355.351562 291.921875 352.609375 290.96875 L 272.078125 264.132812 C 271.5 263.945312 270.75 263.839844 269.886719 263.839844 Z M 269.886719 263.839844 " fill-opacity="1" fill-rule="nonzero"/><path fill="#ffffff" d="M 448.019531 351.222656 C 442.453125 351.222656 437.9375 346.707031 437.9375 341.140625 L 437.9375 280.644531 C 437.9375 271.378906 430.394531 263.839844 421.132812 263.839844 L 269.886719 263.839844 C 264.320312 263.839844 259.804688 259.320312 259.804688 253.753906 C 259.804688 248.1875 264.320312 243.671875 269.886719 243.671875 L 421.132812 243.671875 C 441.527344 243.671875 458.105469 260.25 458.105469 280.644531 L 458.105469 341.140625 C 458.105469 346.707031 453.585938 351.222656 448.019531 351.222656 Z M 448.019531 351.222656 " fill-opacity="1" fill-rule="nonzero"/><path fill="#ffffff" d="M 421.132812 525.996094 L 367.355469 525.996094 C 361.792969 525.996094 357.273438 521.480469 357.273438 515.914062 C 357.273438 510.347656 361.792969 505.828125 367.355469 505.828125 L 421.132812 505.828125 C 430.394531 505.828125 437.9375 498.289062 437.9375 489.023438 L 437.9375 428.527344 C 437.9375 422.960938 442.453125 418.445312 448.019531 418.445312 C 453.585938 418.445312 458.105469 422.960938 458.105469 428.527344 L 458.105469 489.023438 C 458.105469 509.417969 441.527344 525.996094 421.132812 525.996094 Z M 421.132812 525.996094 " fill-opacity="1" fill-rule="nonzero"/></svg>